<svg xmlns="http://www.w3.org/2000/svg" width="508" height="128" viewBox="0 0 254 64" fill="none" role="img" aria-label="Polaris">
<g transform="translate(2 4) scale(1.4737)">
<path d="M38 34.2C38 36.2987 36.2987 38 34.2 38H3.8C1.70132 38 0 36.2987 0 34.2V3.8C0 1.70132 1.70132 0 3.8 0H34.2C36.2987 0 38 1.70132 38 3.8V34.2Z" fill="#126DFF"/>
<path fill-rule="evenodd" clip-rule="evenodd" d="M14.5888 7.77765C16.2401 7.14973 18.1314 7.84717 18.8512 9.33629L18.8813 9.40059L23.3166 19.1746L27.4553 17.3081C28.7126 16.7409 30.2298 17.1971 30.8786 18.3257L30.9103 18.3827C31.204 18.9283 31.256 19.5557 31.0576 20.1341L31.0315 20.2062L28.3231 27.2981C27.8528 28.5294 26.381 29.1787 25.0358 28.7482C24.3677 28.5344 23.826 28.0792 23.5357 27.4906L23.5045 27.4247L21.6269 23.288L8.74766 29.098C7.98987 29.4398 7.11299 29.4778 6.32588 29.2067L6.2419 29.1765L6.20584 29.1625L6.10859 29.1229C4.60563 28.4799 3.94394 26.8582 4.60616 25.4749L4.63717 25.4122L12.8735 9.28094C13.208 8.62579 13.7888 8.10382 14.5083 7.80942L14.5888 7.77765ZM16.1618 10.3778L8.30761 26.1502L20.6214 20.4547L16.1618 10.3778ZM27.6579 20.4883L25.0192 21.7538L26.2052 24.5325L27.6579 20.4883Z" fill="white"/>
<path opacity="0.19784" d="M20.5686 20.3856L23.5069 19.054L24.7636 21.836L21.8251 23.1674L20.5686 20.3856Z" fill="#0062FF"/>
<path opacity="0.95" transform="rotate(45 31.6 13)" d="M31.6 10.3C31.76 12.14 32.36 12.84 34.2 13C32.36 13.16 31.76 13.66 31.6 15.5C31.44 13.66 30.84 13.16 29 13C30.84 12.84 31.44 12.14 31.6 10.3Z" fill="#19D3A7"/>
<path d="M31.6 8.4C31.92 11.88 32.72 12.68 36.2 13C32.72 13.32 31.92 14.12 31.6 17.6C31.28 14.12 30.48 13.32 27 13C30.48 12.68 31.28 11.88 31.6 8.4Z" fill="#FFFFFF"/>
</g>
<g transform="translate(74 8.58) scale(1.35)">
<g stroke="#126DFF" stroke-width="5" fill="none" stroke-linejoin="round">
<path d="M4.95 31.7 V10.95 A7 7 0 0 1 11.95 3.95 H16.65 A7 7 0 0 1 23.65 10.95 V13.55 A7 7 0 0 1 16.65 20.55 H4.95"/>
<rect x="29.05" y="13.35" width="17.9" height="16.7" rx="4.8"/>
<path d="M73.4 21.8 H67.0 Q62.55 21.8 62.55 25.8 Q62.55 29.7 67.5 29.7 H78.6"/>
<path d="M87.45 31.7 V21.3 Q87.45 13.35 95.4 13.35 H99.3"/>
<path d="M105.3 11.7 V31.7"/>
<path d="M126.0 15.35 H119.2 Q113.9 15.35 113.9 18.3 C113.9 20.6 115.9 21.7 119.2 22.25 C123.2 22.95 126.7 24.0 126.7 26.8 Q126.7 29.7 121.7 29.7 H114.4"/>
</g>
<path d="M126.0 13.35 L128.7 17.35 H126.0 Z" fill="#126DFF" stroke="#126DFF" stroke-width="1" stroke-linejoin="round"/>
<path d="M114.4 31.7 L111.9 27.7 H114.4 Z" fill="#126DFF" stroke="#126DFF" stroke-width="1" stroke-linejoin="round"/>
<path d="M52.9 5.6 L56.9 3.0 V31.7 H52.9 Z" fill="#126DFF" stroke="#126DFF" stroke-width="1" stroke-linejoin="round"/>
<path d="M63.0 11.7 H74.9 C79.2 11.7 80.6 13.9 80.6 19.2 V31.7 H76.6 V18.8 C76.6 16.4 75.4 15.7 73.4 15.7 H65.4 Z" fill="#126DFF" stroke="#126DFF" stroke-width="1" stroke-linejoin="round"/>
<rect x="9.9" y="11.4" width="9" height="2.4" rx="1.2" fill="#19D3A7"/>

<circle cx="105.4" cy="5.2" r="2.6" fill="#19D3A7"/>
</g></svg>
